# xmcd CD database file
#
# Track frame offsets:
#	150
#	20100
#	43890
#	57832
#	76488
#	91051
#	108975
#	126465
#	147173
#	164821
#	185790
#	201337
#
# Disc length: 2989 seconds
#
# Revision: 2
# Processed by: cddbd v1.5.2PL0 Copyright (c) Steve Scherf et al.
# Submitted via: CDex 1.51
#
DISCID=b50bab0c
DTITLE=Mikha's Room - New Krokodillos Muy Internacionales
DYEAR=1900
DGENRE=Jazz
TTITLE0=Me Myself And I
TTITLE1=After You've Gone
TTITLE2=Sidewalk Blues
TTITLE3=Who Walked In
TTITLE4=Lazy River
TTITLE5=Gundagai
TTITLE6=Willie The Weeper
TTITLE7=Mikha's Room
TTITLE8=Muy Neurological Rag
TTITLE9=Someday You'll Be Sorry
TTITLE10=Back Home Agin in BCN
TTITLE11=All Of Me
EXTD=
EXTT0=
EXTT1=
EXTT2=
EXTT3=
EXTT4=
EXTT5=
EXTT6=
EXTT7=
EXTT8=
EXTT9=
EXTT10=
EXTT11=
PLAYORDER=
